<svg xmlns="http://www.w3.org/2000/svg" viewBox="0 0 400 400">
  <defs>
    <linearGradient id="bg" x1="0%" y1="0%" x2="100%" y2="100%">
      <stop offset="0%" style="stop-color:#f8f0e8;stop-opacity:1"/>
      <stop offset="100%" style="stop-color:#f0e6d6;stop-opacity:1"/>
    </linearGradient>
  </defs>
  <circle cx="200" cy="200" r="180" fill="url(#bg)" stroke="#c4a870" stroke-width="3"/>
  <!-- Bowl -->
  <path d="M125 240 Q125 300 200 300 Q275 300 275 240" fill="#907050"/>
  <ellipse cx="200" cy="240" rx="75" ry="26" fill="#B89070"/>
  <!-- Tiny amaranth grains -->
  <g fill="#F0DCC0">
    <circle cx="165" cy="233" r="2.5"/><circle cx="172" cy="230" r="2.5"/>
    <circle cx="179" cy="232" r="2.5"/><circle cx="186" cy="229" r="2.5"/>
    <circle cx="193" cy="231" r="2.5"/><circle cx="200" cy="228" r="2.5"/>
    <circle cx="207" cy="230" r="2.5"/><circle cx="214" cy="232" r="2.5"/>
    <circle cx="221" cy="229" r="2.5"/><circle cx="228" cy="231" r="2.5"/>
    <circle cx="235" cy="234" r="2.5"/><circle cx="170" cy="238" r="2.5"/>
    <circle cx="180" cy="236" r="2.5"/><circle cx="190" cy="238" r="2.5"/>
    <circle cx="200" cy="235" r="2.5"/><circle cx="210" cy="237" r="2.5"/>
    <circle cx="220" cy="236" r="2.5"/><circle cx="230" cy="239" r="2.5"/>
  </g>
  <!-- Amaranth plant (reddish plume) -->
  <g transform="translate(200,130)">
    <line x1="0" y1="40" x2="0" y2="-20" stroke="#6B8E4E" stroke-width="3"/>
    <path d="M0,-20 Q-15,-50 -5,-70 Q0,-55 5,-70 Q15,-50 0,-20" fill="#C44040"/>
    <path d="M0,-15 Q-10,-40 -3,-55 Q0,-42 3,-55 Q10,-40 0,-15" fill="#D45050"/>
    <path d="M-5,10 Q-25,0 -35,-5" stroke="#6B8E4E" stroke-width="2" fill="none"/>
    <path d="M-35,-5 Q-30,-20 -18,-12 Q-25,0 -35,-5Z" fill="#7B9E57"/>
    <path d="M5,15 Q25,5 35,0" stroke="#6B8E4E" stroke-width="2" fill="none"/>
    <path d="M35,0 Q30,-15 18,-8 Q25,5 35,0Z" fill="#7B9E57"/>
  </g>
  <text x="200" y="345" text-anchor="middle" font-family="Arial, sans-serif" font-size="22" font-weight="bold" fill="#8B5E3C">Amaranto</text>
</svg>