<svg xmlns="http://www.w3.org/2000/svg" viewBox="0 0 400 400">
  <defs>
    <linearGradient id="bg" x1="0%" y1="0%" x2="100%" y2="100%">
      <stop offset="0%" style="stop-color:#fefce8;stop-opacity:1"/>
      <stop offset="100%" style="stop-color:#fdf6c0;stop-opacity:1"/>
    </linearGradient>
  </defs>
  <circle cx="200" cy="200" r="180" fill="url(#bg)" stroke="#e0d68a" stroke-width="3"/>
  <!-- Tea cup -->
  <path d="M130 230 Q135 290 200 290 Q265 290 270 230" fill="#EFEBE9"/>
  <ellipse cx="200" cy="230" rx="70" ry="24" fill="#FFF8E1"/>
  <ellipse cx="200" cy="230" rx="70" ry="24" fill="none" stroke="#D7CCC8" stroke-width="2"/>
  <!-- Handle -->
  <path d="M270 240 Q300 240 300 260 Q300 280 275 275" fill="none" stroke="#D7CCC8" stroke-width="6"/>
  <!-- Steam -->
  <g stroke="#BDBDBD" stroke-width="2" fill="none" opacity="0.5">
    <path d="M185 210 Q180 195 185 180 Q190 165 185 150"/>
    <path d="M200 205 Q195 190 200 175 Q205 160 200 145"/>
    <path d="M215 210 Q210 195 215 180 Q220 165 215 150"/>
  </g>
  <!-- Saucer -->
  <ellipse cx="200" cy="292" rx="85" ry="12" fill="#EFEBE9" stroke="#D7CCC8" stroke-width="2"/>
  <!-- Chamomile flower -->
  <g transform="translate(200,110)">
    <g fill="#FFF9C4">
      <ellipse cx="0" cy="-18" rx="5" ry="12"/>
      <ellipse cx="12" cy="-13" rx="5" ry="12" transform="rotate(30 12 -13)"/>
      <ellipse cx="17" cy="-2" rx="5" ry="12" transform="rotate(60 17 -2)"/>
      <ellipse cx="13" cy="10" rx="5" ry="12" transform="rotate(90 13 10)"/>
      <ellipse cx="0" cy="16" rx="5" ry="12" transform="rotate(0 0 16)"/>
      <ellipse cx="-13" cy="10" rx="5" ry="12" transform="rotate(-90 -13 10)"/>
      <ellipse cx="-17" cy="-2" rx="5" ry="12" transform="rotate(-60 -17 -2)"/>
      <ellipse cx="-12" cy="-13" rx="5" ry="12" transform="rotate(-30 -12 -13)"/>
    </g>
    <circle cx="0" cy="0" r="8" fill="#FFC107"/>
  </g>
  <text x="200" y="345" text-anchor="middle" font-family="Arial, sans-serif" font-size="22" font-weight="bold" fill="#8D6E00">Chá de Camomila</text>
</svg>