<svg xmlns="http://www.w3.org/2000/svg" viewBox="0 0 400 400">
  <defs>
    <linearGradient id="bg" x1="0%" y1="0%" x2="100%" y2="100%">
      <stop offset="0%" style="stop-color:#fce4ec;stop-opacity:1"/>
      <stop offset="100%" style="stop-color:#f8bbd0;stop-opacity:1"/>
    </linearGradient>
  </defs>
  <circle cx="200" cy="200" r="180" fill="url(#bg)" stroke="#e57399" stroke-width="3"/>
  <!-- Tea cup with red tea -->
  <path d="M135 240 Q140 295 200 295 Q260 295 265 240" fill="#EFEBE9"/>
  <ellipse cx="200" cy="240" rx="65" ry="22" fill="#C62828" opacity="0.7"/>
  <ellipse cx="200" cy="240" rx="65" ry="22" fill="none" stroke="#D7CCC8" stroke-width="2"/>
  <!-- Handle -->
  <path d="M265 248 Q292 248 292 268 Q292 285 268 280" fill="none" stroke="#D7CCC8" stroke-width="5"/>
  <!-- Saucer -->
  <ellipse cx="200" cy="297" rx="80" ry="10" fill="#EFEBE9" stroke="#D7CCC8" stroke-width="2"/>
  <!-- Hibiscus flower -->
  <g transform="translate(200,130)">
    <g fill="#C62828">
      <path d="M0,-30 Q-12,-18 0,-5 Q12,-18 0,-30"/>
      <path d="M28,-10 Q12,-12 5,0 Q18,8 28,-10"/>
      <path d="M18,25 Q8,12 -5,8 Q-2,22 18,25"/>
      <path d="M-18,25 Q-8,12 5,8 Q2,22 -18,25"/>
      <path d="M-28,-10 Q-12,-12 -5,0 Q-18,8 -28,-10"/>
    </g>
    <g fill="#E53935" opacity="0.6">
      <path d="M0,-25 Q-8,-15 0,-5 Q8,-15 0,-25"/>
      <path d="M22,-6 Q10,-10 5,0 Q14,5 22,-6"/>
      <path d="M14,20 Q6,10 -3,7 Q0,18 14,20"/>
      <path d="M-14,20 Q-6,10 3,7 Q0,18 -14,20"/>
      <path d="M-22,-6 Q-10,-10 -5,0 Q-14,5 -22,-6"/>
    </g>
    <!-- Pistil -->
    <line x1="0" y1="0" x2="0" y2="-15" stroke="#FFEB3B" stroke-width="2"/>
    <circle cx="0" cy="-16" r="3" fill="#FFC107"/>
  </g>
  <text x="200" y="348" text-anchor="middle" font-family="Arial, sans-serif" font-size="22" font-weight="bold" fill="#B71C1C">Chá de Hibisco</text>
</svg>