<svg xmlns="http://www.w3.org/2000/svg" viewBox="0 0 400 400">
  <defs>
    <linearGradient id="bg" x1="0%" y1="0%" x2="100%" y2="100%">
      <stop offset="0%" style="stop-color:#e8f5e9;stop-opacity:1"/>
      <stop offset="100%" style="stop-color:#c8e6c9;stop-opacity:1"/>
    </linearGradient>
  </defs>
  <circle cx="200" cy="200" r="180" fill="url(#bg)" stroke="#81c784" stroke-width="3"/>
  <!-- Tea cup -->
  <path d="M135 240 Q140 295 200 295 Q260 295 265 240" fill="#EFEBE9"/>
  <ellipse cx="200" cy="240" rx="65" ry="22" fill="#A5D6A7" opacity="0.5"/>
  <ellipse cx="200" cy="240" rx="65" ry="22" fill="none" stroke="#D7CCC8" stroke-width="2"/>
  <!-- Handle -->
  <path d="M265 248 Q292 248 292 268 Q292 285 268 280" fill="none" stroke="#D7CCC8" stroke-width="5"/>
  <!-- Saucer -->
  <ellipse cx="200" cy="297" rx="80" ry="10" fill="#EFEBE9" stroke="#D7CCC8" stroke-width="2"/>
  <!-- Steam -->
  <g stroke="#BDBDBD" stroke-width="2" fill="none" opacity="0.4">
    <path d="M190 220 Q185 205 190 190 Q195 175 190 160"/>
    <path d="M210 218 Q205 203 210 188 Q215 173 210 158"/>
  </g>
  <!-- Mint leaves -->
  <g transform="translate(200,120)">
    <path d="M0,10 Q-30,-10 -15,-35 Q0,-15 0,10" fill="#43A047"/>
    <path d="M0,10 Q30,-10 15,-35 Q0,-15 0,10" fill="#66BB6A"/>
    <line x1="0" y1="10" x2="-8" y2="-15" stroke="#2E7D32" stroke-width="1.2"/>
    <line x1="0" y1="10" x2="8" y2="-15" stroke="#2E7D32" stroke-width="1.2"/>
    <path d="M0,10 Q-20,0 -10,-18" fill="none" stroke="#388E3C" stroke-width="0.8"/>
    <path d="M0,10 Q20,0 10,-18" fill="none" stroke="#388E3C" stroke-width="0.8"/>
    <!-- Small leaf -->
    <path d="M-15,-10 Q-35,-20 -25,-35 Q-12,-20 -15,-10" fill="#81C784"/>
    <path d="M15,-10 Q35,-20 25,-35 Q12,-20 15,-10" fill="#A5D6A7"/>
  </g>
  <text x="200" y="348" text-anchor="middle" font-family="Arial, sans-serif" font-size="22" font-weight="bold" fill="#2E7D32">Chá de Hortelã</text>
</svg>