<svg xmlns="http://www.w3.org/2000/svg" viewBox="0 0 400 400">
  <defs>
    <linearGradient id="bg" x1="0%" y1="0%" x2="100%" y2="100%">
      <stop offset="0%" style="stop-color:#fdf5e6;stop-opacity:1"/>
      <stop offset="100%" style="stop-color:#f5e6c8;stop-opacity:1"/>
    </linearGradient>
  </defs>
  <circle cx="200" cy="200" r="180" fill="url(#bg)" stroke="#c9a86c" stroke-width="3"/>
  <!-- Bowl -->
  <path d="M110 220 Q110 300 200 300 Q290 300 290 220" fill="#8B7355"/>
  <ellipse cx="200" cy="220" rx="90" ry="32" fill="#A0845C"/>
  <!-- Assorted nuts -->
  <!-- Cashews -->
  <path d="M155,210 Q148,200 155,195 Q162,200 160,210" fill="#E8D5A0" stroke="#C8B580" stroke-width="1"/>
  <path d="M240,208 Q233,198 240,193 Q247,198 245,208" fill="#E8D5A0" stroke="#C8B580" stroke-width="1"/>
  <!-- Almonds -->
  <ellipse cx="180" cy="208" rx="10" ry="6" fill="#C8935A" transform="rotate(20 180 208)"/>
  <ellipse cx="220" cy="212" rx="10" ry="6" fill="#C8935A" transform="rotate(-15 220 212)"/>
  <!-- Walnuts -->
  <circle cx="200" cy="210" r="10" fill="#8B6914"/>
  <path d="M194,210 Q200,205 206,210" fill="none" stroke="#6B5010" stroke-width="1"/>
  <!-- Brazil nuts -->
  <path d="M165,225 Q163,218 172,216 Q178,220 175,228 Q170,230 165,225" fill="#D4A050"/>
  <path d="M228,222 Q226,215 235,213 Q241,217 238,225 Q233,227 228,222" fill="#D4A050"/>
  <!-- Hazelnuts -->
  <circle cx="195" cy="225" r="8" fill="#A0633B"/>
  <circle cx="195" cy="225" r="5" fill="#B8753E" opacity="0.6"/>
  <circle cx="210" cy="222" r="7" fill="#A0633B"/>
  <!-- Raisins -->
  <circle cx="185" cy="235" r="4" fill="#4A148C" opacity="0.7"/>
  <circle cx="215" cy="232" r="4" fill="#4A148C" opacity="0.7"/>
  <text x="200" y="348" text-anchor="middle" font-family="Arial, sans-serif" font-size="22" font-weight="bold" fill="#5D4037">Mix de Nuts</text>
</svg>