<svg xmlns="http://www.w3.org/2000/svg" viewBox="0 0 400 400">
  <defs>
    <linearGradient id="bg" x1="0%" y1="0%" x2="100%" y2="100%">
      <stop offset="0%" style="stop-color:#fdf8ee;stop-opacity:1"/>
      <stop offset="100%" style="stop-color:#f5edda;stop-opacity:1"/>
    </linearGradient>
  </defs>
  <circle cx="200" cy="200" r="180" fill="url(#bg)" stroke="#d4c49a" stroke-width="3"/>
  <!-- Bowl -->
  <path d="M120 220 Q120 290 200 290 Q280 290 280 220" fill="#A08060"/>
  <ellipse cx="200" cy="220" rx="80" ry="28" fill="#C4A67D"/>
  <!-- Quinoa grains -->
  <g fill="#F5E6C8">
    <circle cx="170" cy="210" r="4"/><circle cx="180" cy="205" r="4"/>
    <circle cx="190" cy="208" r="4"/><circle cx="200" cy="204" r="4"/>
    <circle cx="210" cy="207" r="4"/><circle cx="220" cy="210" r="4"/>
    <circle cx="230" cy="206" r="4"/><circle cx="175" cy="218" r="4"/>
    <circle cx="185" cy="215" r="4"/><circle cx="195" cy="218" r="4"/>
    <circle cx="205" cy="214" r="4"/><circle cx="215" cy="217" r="4"/>
    <circle cx="225" cy="215" r="4"/><circle cx="190" cy="225" r="3.5"/>
    <circle cx="200" cy="222" r="3.5"/><circle cx="210" cy="224" r="3.5"/>
  </g>
  <!-- Quinoa plant -->
  <g transform="translate(200,130)">
    <line x1="0" y1="30" x2="0" y2="-30" stroke="#7B9E57" stroke-width="2.5"/>
    <g fill="#C8A840">
      <circle cx="-3" cy="-28" r="3"/><circle cx="3" cy="-25" r="3"/>
      <circle cx="-5" cy="-22" r="3"/><circle cx="5" cy="-19" r="3"/>
      <circle cx="-3" cy="-16" r="3"/><circle cx="4" cy="-13" r="3"/>
      <circle cx="-4" cy="-10" r="3"/><circle cx="3" cy="-7" r="3"/>
    </g>
    <path d="M0,10 Q-20,0 -30,-5" fill="none" stroke="#7B9E57" stroke-width="2"/>
    <path d="M-30,-5 Q-25,-20 -15,-15 Q-20,-5 -30,-5Z" fill="#8BAE67"/>
    <path d="M0,15 Q20,5 30,0" fill="none" stroke="#7B9E57" stroke-width="2"/>
    <path d="M30,0 Q25,-15 15,-10 Q20,0 30,0Z" fill="#8BAE67"/>
  </g>
  <text x="200" y="345" text-anchor="middle" font-family="Arial, sans-serif" font-size="22" font-weight="bold" fill="#8B7340">Quinoa em Grãos</text>
</svg>